<?xml version="1.0" standalone="no"?>
<!DOCTYPE svg PUBLIC "-//W3C//DTD SVG 20010904//EN"
 "http://www.w3.org/TR/2001/REC-SVG-20010904/DTD/svg10.dtd">
<svg version="1.0" xmlns="http://www.w3.org/2000/svg"
 width="890.000000pt" height="500.000000pt" viewBox="0 0 890.000000 500.000000"
 preserveAspectRatio="xMidYMid meet">

<g transform="translate(0.000000,500.000000) scale(0.100000,-0.100000)"
fill="#000000" stroke="none">
<path d="M1370 3525 c0 -189 -74 -372 -253 -623 -82 -115 -97 -123 -97 -55 0
48 -19 129 -43 182 l-21 46 -7 -40 c-12 -68 -45 -155 -104 -274 -92 -187 -109
-246 -109 -381 -1 -94 3 -126 21 -172 35 -94 99 -175 203 -259 56 -45 180
-129 190 -129 4 0 -5 38 -21 85 -53 158 -38 247 75 434 40 67 78 146 94 196
15 47 30 85 33 85 15 0 43 -101 48 -170 l6 -75 31 45 c64 93 124 310 110 398
-3 18 0 32 5 32 16 0 126 -108 164 -160 182 -251 222 -562 109 -854 -6 -17 -5
-17 22 -3 55 29 169 117 237 185 272 267 288 629 47 1004 -76 118 -225 279
-194 211 4 -10 9 -56 11 -103 3 -74 0 -91 -20 -129 -12 -25 -27 -46 -33 -48
-5 -2 -17 26 -27 61 -28 96 -107 252 -174 341 -76 103 -182 192 -275 233 l-28
12 0 -75z"/>
<path d="M3792 3481 c-2 -55 -35 -137 -79 -196 l-37 -50 -9 43 c-4 23 -11 42
-15 42 -9 -1 -72 -150 -85 -202 -16 -64 6 -119 70 -178 30 -28 58 -50 63 -50
5 0 6 24 3 53 -5 48 -2 61 31 122 20 37 36 74 36 82 0 24 20 13 26 -14 3 -16
7 -32 9 -38 5 -18 45 80 45 112 0 45 14 48 46 11 64 -77 92 -191 71 -290 -11
-53 3 -49 73 20 45 44 62 68 71 105 7 26 17 47 21 47 4 0 8 16 8 35 0 19 -4
35 -10 35 -5 0 -10 8 -10 18 0 27 -55 133 -89 172 l-30 35 -1 -35 c0 -34 -14
-70 -23 -60 -2 3 -17 33 -32 67 -28 63 -109 153 -138 153 -9 0 -14 -13 -15
-39z"/>
<path d="M4773 3193 c-10 -3 -13 -43 -13 -149 l0 -144 170 0 170 0 2 -542 3
-543 165 0 165 0 0 540 0 540 148 3 c108 2 147 6 147 15 0 6 18 67 40 135 22
68 40 130 40 138 0 12 -75 14 -512 13 -282 0 -519 -3 -525 -6z"/>
<path d="M7089 3183 c-2 -10 -3 -323 -1 -696 l2 -678 158 3 157 3 3 181 2 180
49 48 49 48 60 -89 c33 -48 103 -151 155 -228 l94 -140 182 -3 c108 -1 181 1
181 7 0 5 -4 11 -8 13 -5 2 -30 33 -55 71 -26 37 -68 97 -94 135 -25 37 -50
69 -55 70 -4 2 -8 8 -8 13 0 5 -25 44 -55 86 -30 43 -84 121 -120 173 l-66 95
203 197 203 197 -200 0 -200 1 -149 -150 c-83 -83 -153 -150 -158 -150 -4 0
-8 142 -8 315 l0 315 -159 0 c-143 0 -159 -2 -162 -17z"/>
<path d="M2600 2425 l0 -595 470 0 470 0 0 155 0 155 -270 0 -270 0 0 440 0
440 -200 0 -200 0 0 -595z"/>
<path d="M4230 2840 l0 -130 -65 0 -65 0 0 -140 0 -140 64 0 64 0 4 -177 c4
-168 6 -181 32 -238 15 -33 41 -75 59 -93 95 -100 305 -137 485 -86 29 8 55
21 58 28 3 7 -14 64 -36 127 -22 63 -42 119 -45 126 -3 8 -15 7 -45 -3 -22 -8
-52 -11 -66 -8 -47 12 -54 37 -54 186 l0 138 95 0 95 0 0 140 0 140 -99 0 -98
0 5 130 4 130 -196 0 -196 0 0 -130z"/>
<path d="M6190 2926 c-97 -24 -203 -87 -273 -161 -40 -42 -83 -105 -92 -135
-4 -14 -11 -29 -15 -35 -39 -50 -53 -267 -24 -366 64 -218 226 -365 446 -405
144 -26 357 7 469 74 117 68 211 187 250 317 23 74 26 248 5 316 -50 165 -186
313 -336 368 -109 40 -326 53 -430 27z m274 -314 c62 -34 103 -84 123 -151 53
-184 -70 -350 -262 -351 -59 0 -78 5 -121 30 -100 57 -148 142 -142 249 5 102
53 182 133 224 84 44 187 43 269 -1z"/>
<path d="M3630 2295 l0 -465 195 0 195 0 0 465 0 465 -195 0 -195 0 0 -465z"/>
</g>
</svg>
