<svg width="33" height="24" viewBox="0 0 33 24" fill="none" xmlns="http://www.w3.org/2000/svg">
<path fill-rule="evenodd" clip-rule="evenodd" d="M23.5011 2.86364C21.5703 0.948902 19.0317 0 16.5 0C13.9683 0 11.44 0.949978 9.51042 2.86364C7.47747 4.87979 6.5615 7.56981 6.66875 10.2159C2.96281 10.3737 0 13.3768 0 17.0909C0 20.906 3.11982 24 6.96667 24H16.0152C16.0146 23.9848 16.0143 23.9696 16.0143 23.9543V13.3987L13.6578 15.4739C13.274 15.8445 12.6191 15.7976 12.2519 15.4085C11.8712 15.0052 11.9423 14.2887 12.3291 13.9216L16.3387 10.2614C16.5564 10.0511 16.7407 9.99912 17.0031 10C17.2675 10.0052 17.5261 10.1246 17.6674 10.2614L21.677 13.9216C22.0834 14.2956 22.1031 15.001 21.7543 15.4085C21.4054 15.816 20.7322 15.8445 20.3483 15.4739L17.9918 13.3987V23.9543C17.9918 23.9696 17.9915 23.9848 17.9909 24H24.9333C29.3797 24 33 20.4096 33 16C33 12.0296 30.062 8.75393 26.2281 8.13636C25.892 6.20875 24.9993 4.34957 23.5011 2.86364Z" fill="#161823"/>
</svg>
